<svg xmlns="http://www.w3.org/2000/svg" width="24" height="24" viewBox="0 0 9.555 9.436">
  <path fill="currentColor" d="M8.555 8.436H5.501V8.07q.403-.026.667-.103.268-.078.268-.191 0-.047-.01-.114t-.031-.119L5.785 5.9H3.217q-.145.362-.238.63l-.16.496q-.067.223-.093.362-.026.14-.026.228 0 .206.326.32.325.114.734.134v.367H1V8.07q.134-.01.336-.057.201-.051.33-.134.207-.14.321-.29.114-.154.222-.423.553-1.38 1.22-3.1L4.617 1h.414l2.444 6.325q.078.202.176.326.098.124.274.243.118.072.31.124.19.046.32.051zM5.6 5.44L4.49 2.597 3.397 5.439z" style="-inkscape-font-specification:georgia" font-family="georgia" aria-label="A" font-weight="400" font-size="10.583" letter-spacing="0" word-spacing="0" stroke-width=".265" />
</svg>