<svg xmlns="http://www.w3.org/2000/svg" width="20" height="20" viewBox="0 0 20 20">
  <g fill="none" stroke="currentColor" stroke-width="1.436" stroke-linecap="round">
    <path d="M8.296 4.517A1.907 1.907 0 016.39 6.424a1.907 1.907 0 01-1.907-1.907A1.907 1.907 0 016.39 2.61a1.907 1.907 0 011.907 1.907zM4.231 4.517h-2.39M17.81 4.517H8.295M11.707 10.126a1.907 1.907 0 011.907-1.907 1.907 1.907 0 011.907 1.907 1.907 1.907 0 01-1.907 1.907 1.907 1.907 0 01-1.907-1.907zM15.773 10.126h2.39M1.84 10.126h9.513M8.296 15.735a1.907 1.907 0 01-1.907 1.907 1.907 1.907 0 01-1.907-1.907 1.907 1.907 0 011.907-1.907 1.907 1.907 0 011.907 1.907zM4.231 15.735h-2.39M18.163 15.735H8.65" />
  </g>
</svg>